<?xml version="1.0" encoding="UTF-8"?>
<svg id="Layer_1" data-name="Layer 1" xmlns="http://www.w3.org/2000/svg" viewBox="0 0 96.64 52.21">
  <path d="m18.64,36.41l-.06.03.02-.14s.03.08.04.11Z"/>
  <path d="m20.71,40.81c-2.1,1.13-4.2,2.26-6.3,3.4-.02.01-.04.02-.07.03-1.48.8-2.98,1.59-4.3,2.24-.67.33-1.3.62-1.85.87-.46.2-.87.37-1.21.49-1.39.49-2.19.73-3.12.5h0c-.74-.18-1.31-.58-1.74-.99-.32-.31-.56-.62-.72-.86-.01,0-.01-.01-.01-.01-.05-.09-.1-.19-.14-.3-.19-.44-.29-.91-.29-1.42v-24.65h7.25s.01,19.07,0,19.14c-.04,1.69,1.6,1.67,1.6,1.67.14.02.25.01.42-.01.42-.04,1.05-.17,1.79-.59,2.28-1.08,4.57-2.16,6.86-3.24.02-.01.04-.02.06-.03.39-.24.77-.48,1.13-.71,2.95-1.89,5.1-3.46,6.17-4.31.46-.37,1.77-1.43,1.99-2.85.04-.26.29-1.88-.76-2.84-.64-.58-1.44-.63-2.09-.66-2.09-.1-3.67,1.03-4.18,1.4-.73.53-1.28,1.14-1.69,1.73-.74,1.04-1.05,2.02-1.15,2.38-.63,2.16-.15,4.06.25,5.11l-.02.14-.16.07-2.29,1.06-4.39,2.03c-.13-.39-.24-.78-.33-1.18-.01-.03-.02-.05-.02-.08-.2-.86-.32-1.75-.36-2.68-.08-1.87.24-3.77.96-5.72.73-1.99,1.73-3.68,3.01-5.08,1.01-1.1,2.12-2,3.32-2.68.66-.42,1.36-.78,2.1-1.07.9-.37,1.84-.63,2.8-.79.25-.04.5-.08.75-.1.22-.02.44-.03.66-.04.5-.06,1.02-.08,1.55-.06.2,0,.4.02.6.05.37.04,5.22.65,6.83,4.45.9,2.14.46,4.51-.29,5.97-.37.72-1.02,1.63-1.76,2.41-.58.6-1.24,1.14-1.53,1.38-.49.41-1.03.79-1.04.8s-.03.02-.03.02c-.03.02-.06.04-.14.09h-.01c-.13.11-.41.3-1.09.77q-.38.26-1.23.85c-1.2.83-2.36,1.63-3.71,2.53-.14.09-.29.2-.46.31-.43.28-.95.63-1.55,1.02-.02.01-.04.02-.06.04Z"/>
  <polygon points="61.89 44.55 66.41 40.02 66.41 48.41 64.67 48.41 61.89 44.55"/>
  <path d="m89.06,36.88l5.34,5.36c-.67.96-1.45,1.83-2.33,2.59-.89.77-1.84,1.42-2.86,1.95-1.02.54-2.1.94-3.23,1.22-1.13.27-2.29.41-3.49.41-2.01,0-3.9-.38-5.67-1.13-1.77-.76-3.32-1.8-4.65-3.12-1.32-1.31-2.37-2.85-3.13-4.62-.24-.53-.43-1.07-.59-1.62l7.51-7.7c-.04.1-.08.2-.11.3-.38,1.01-.57,2.14-.57,3.36,0,1,.19,1.94.57,2.81.37.87.88,1.64,1.53,2.29.65.66,1.42,1.18,2.3,1.55.88.38,1.82.56,2.81.56.72,0,1.4-.09,2.06-.29s1.28-.48,1.86-.84c.57-.37,1.09-.81,1.54-1.34.46-.52.83-1.1,1.11-1.74Z"/>
  <path d="m92.87,21.43c-.89-.84-1.85-1.54-2.89-2.12-1.04-.58-2.13-1.02-3.28-1.32-1.15-.31-2.32-.46-3.52-.46-2.01,0-3.9.41-5.67,1.23-1.77.82-3.32,1.94-4.65,3.35-.07.08-.14.16-.21.24-2.03,2.06-4.06,4.11-6.09,6.17-.02.02-.05.05-.07.07V1.74h-7.24v7.82c-.29-.04-.58-.1-.87-.16-2.64-.56-5.06-1.45-6.42-1.96-1.06-.39-5.17-1.95-7.82-2.47-.44-.08-1.18-.2-2.14-.19-.32.01-1.28.02-2.18.27-1.85.52-3,1.93-3.9,3.04-.18.22-.77,1.18-2.09,2.98-.47.64-.95,1.28-1.52,1.81-.33.32-.7.59-1.1.76-.43.2-.9.3-1.43.23-.42-.06-.66-.15-.79-.32-.14-.19-.15-.43-.12-.63.02-.1.04-.19.06-.28.06-.22.11-.44.15-.66.12-.53.22-1.06.35-1.58.05-.19.36-1.37.19-2.8-.12-.98-.35-1.08-.43-1.11-.5-.19-.83.34-1.1.75-.01.01-.02.03-.03.05-.54,1.1-.79,2.23-.68,3.37.04.56.18,1.12.42,1.67.31.74.32,1.31,0,1.98-.2.41-.35.87-.59,1.26-.75,1.21-.91,1.48-1.16,1.61-.27.14-.46.15-.57.14-.36-.02-.61-.27-.68-.34-.41-.43-.36-1.08-.4-1.33-.31-2.42-.25-4.84.08-7.25.03-.26.07-.52.11-.78.04-.29.08-.56-.06-.74-.1-.13-.26-.17-.38-.19-.54-.1-2.43-.03-2.49-.03-.04.12-.09.29-.15.49-.17.61-.39,1.52-.49,2.65-.11,1.23-.03,2.32.1,3.18-.32.19-.53.25-.6.27-.22.06-.69.19-.92-.03-.16-.16-.14-.42-.1-.71.12-1,.33-1.81.42-2.16.1-.44.14-.8.23-1.54.15-1.11.16-1.74-.23-2.16-.05-.06-.11-.11-.15-.13-.45-.14-.75.24-.97.62-1.05,1.81-1.08,3.67-.23,5.56.08.17.24.39.19.53-.48,1.38-.94,2.77-2.04,3.81-.53.5-.93.43-1.27-.22-.13-.23-.23-.48-.27-.73-.11-.85-.29-1.7-.26-2.55.07-2.03.22-4.06.38-6.08.03-.44-.05-.74-.51-.76-.9-.04-1.81-.06-2.72-.04-.39,0-.58.26-.58.68-.01.61-.08,1.23-.09,1.85,0,.14,0,.18,0,.23-.01.39,0,.9,0,.9.03,1.47-.02,2.22.15,3.45.03.23.08.55.16.92-.56.63-1.26,1.07-2.06,1.36-.64.24-1.31.32-1.99.32-.3-.02-.61-.03-.91-.07-.68-.09-1.27-.4-1.74-.9-.43-.45-.7-1.02-.81-1.63-.16-.77-.12-1.54-.01-2.3.09-.75.33-1.46.69-2.12.31-.57.7-1.1,1.26-1.47.38-.24.79-.45,1.26-.38.48.07.88.34.93.79.06.57.03,1.13-.21,1.66-.14.3-.33.59-.52.87-.06.11-.06.17.01.26.15.15.29.28.5.34.34.1.7.1,1.04.02.71-.15,1.12-.66,1.39-1.3.18-.45.16-.93.15-1.42,0-.6-.31-1.08-.7-1.48-.5-.5-1.14-.78-1.82-.9-.77-.13-1.53-.08-2.29.12-1.34.34-2.45,1.05-3.33,2.11-.93,1.13-1.42,2.45-1.55,3.9-.07.62-.04,1.24.08,1.86.16.86.51,1.63,1.09,2.28.76.84,1.72,1.33,2.83,1.56.74.15,1.48.19,2.21.1,1.08-.14,2.09-.44,3.03-1,.69-.4,1.29-.9,1.77-1.51.17.46.39.9.69,1.32,1.21,1.68,3.35,1.78,4.67.21.24-.28.48-.59.65-.93.45-.88.85-1.78,1.28-2.68.23.06.7.15,1.25-.02.24-.07.46-.19.63-.32.03.18.07.37.11.56.16.74.38,1.49.68,2.25.19.45.39.87.6,1.27.72,1.24,2.8,1.5,3.81.39.59-.66,1.07-1.15,1.7-2.55.17-.39.31-.76.43-1.11.88.37,1.58.34,1.95.29.47-.06.89-.22,1.25-.42.66-.36,1.17-.86,1.54-1.27.53-.57.85-1.05,1.08-1.41,1.76-2.72,3.01-4.65,5.03-5.47.93-.38,1.92-.48,2.16-.5,1.09-.09,1.93.06,2.32.15,2.46.61,4.88,1.39,7.27,2.22,2.68.94,5.3,2.13,8.15,2.43v10.77c-.39-.56-.87-1.04-1.43-1.42-.56-.39-1.16-.7-1.8-.94-.64-.24-1.3-.41-1.98-.51-.67-.11-1.33-.16-1.96-.16-1.98,0-3.85.38-5.6,1.13-1.7.74-3.18,1.74-4.46,3.03-.04.03-.08.07-.12.11-1.31,1.33-2.34,2.91-3.1,4.74-.43,1.05-.74,2.14-.93,3.28-.13.66-.45,2.08-1.29,3.7-.67,1.29-1.67,2.71-3.15,3.96,0,0-.73.77-2.14,1.54-.08.04-.17.09-.27.14-.01.01-.03.02-.05.03l-.82.38c-.21.09-.43.18-.66.26-.28.1-.54.19-.79.26-.08.02-.17.04-.25.07-.99.25-1.87.34-2.8.43h-.07c-.8.04-1.65.01-2.56-.11h-.05s-.03-.01-.04-.01c-.14-.01-.36-.03-.6-.09h-.02s-.02,0-.03,0l-6.48,3.53c.08.07.15.14.22.2,1.55,1.37,3.14,1.94,4.37,2.36,2.81.95,5.18.89,5.93.85,3.69-.18,6.31-1.63,7.58-2.35,2.63-1.5,4.26-3.28,5.57-4.84.03-.04.07-.08.1-.12,1.78-1.88,2.81-3.63,3.43-4.9.55-1.14,1-2.15,1.36-2.98.64-1.47.97-2.37.97-2.37.3-.8.58-1.62,1.31-2.5.12-.14.37-.43.77-.76.04-.04.08-.08.13-.11.02-.02.04-.04.06-.05.06-.05.12-.1.19-.14.33-.26.68-.47,1.07-.66.08-.05.17-.09.26-.13.06-.02.12-.05.18-.07.05-.02.11-.04.16-.07.06-.02.11-.04.16-.05,1.18-.43,2.22-.44,2.81-.4h.04s.09,0,.14,0c.79.06,1.54.27,2.25.63.87.43,1.63,1,2.28,1.71.64.7,1.14,1.5,1.52,2.4.01.02.01.03.02.05.38.92.57,1.87.57,2.86,0,.8-.13,1.58-.39,2.35-.05.17-.11.34-.18.51-.29.7-.66,1.35-1.11,1.93-.14.18-.28.35-.43.52l-.27.27c-.59.59-1.26,1.07-2.01,1.44-.87.43-1.8.64-2.78.64s-1.91-.2-2.78-.6c-.87-.41-1.62-.96-2.27-1.66-.64-.7-1.14-1.52-1.51-2.45-.37-.93-.55-1.92-.55-2.95v-.17c-.25.63-.57,1.38-.96,2.21-.44.95-.87,1.81-1.41,2.77-.49.85-1.29,2.05-2.63,3.4.56.89,1.2,1.71,1.93,2.44,1.31,1.33,2.83,2.37,4.58,3.11,1.75.75,3.62,1.12,5.6,1.12.91,0,1.81-.11,2.7-.34.89-.23,1.75-.54,2.6-.94.84-.39,1.64-.85,2.41-1.39.72-.51,1.41-1.06,2.07-1.64h.02s2.55-2.54,2.55-2.54l4.49-4.49c2.29-2.34,3.44-3.5,4.51-4.62.33-.36,1.96-2.07,4.17-4.17.41-.39.8-.76,1.21-1.08.1-.09.2-.18.31-.25.13-.1.26-.19.4-.28.07-.05.13-.09.2-.13.05-.03.11-.06.16-.09.08-.05.17-.09.25-.13.07-.04.15-.08.23-.12.08-.04.17-.08.26-.11.08-.04.16-.07.25-.1.05-.02.11-.04.16-.06.08-.03.17-.05.25-.08.01,0,.02,0,.03-.01.03-.01.07-.02.11-.03.09-.02.18-.04.27-.06.04,0,.08-.02.13-.03.06-.01.12-.03.19-.03.38-.07.77-.11,1.17-.11.05,0,.09,0,.12.01h.17s.09,0,.13.01c.57.03,1.12.13,1.67.3.67.22,1.3.53,1.88.94.58.41,1.1.91,1.56,1.51.47.59.83,1.27,1.1,2.01l5.34-5.36c-.64-1.09-1.4-2.05-2.28-2.89ZM18.96,12.34c-.2-.43-.63-1.49-.46-2.87.17-1.2.7-2.03.99-2.4,0,.02.01.07.02.12.06.45.15,1.31.06,2.37-.09,1.17-.38,2.13-.61,2.78Zm9.41,0c-.22-.3-.36-.74-.43-1.25-.2-1.45.21-3.43,1.03-4.07.28.46.03,3.11-.36,4.6-.08.29-.16.54-.24.72Z"/>
  <path d="m18.64,36.41l-.06.03.02-.14s.03.08.04.11Z"/>
  <path d="m66.56,28.52s-.05.05-.07.07v-.06h.07Z"/>
</svg>